<svg width="22" height="22" viewBox="0 0 22 22" fill="none" xmlns="http://www.w3.org/2000/svg">
<path d="M4.66248 13.2758L5.4706 13.7334L4.66248 13.2759C4.5256 13.5176 4.46053 13.7813 4.40912 13.9896C4.40446 14.0085 4.3999 14.027 4.39542 14.0449L3.81522 16.3657C3.81242 16.3769 3.8095 16.3885 3.80648 16.4005C3.76966 16.547 3.71866 16.7499 3.70109 16.9295C3.68087 17.1362 3.67418 17.5882 4.04296 17.957C4.41174 18.3257 4.86369 18.3191 5.07039 18.2988C5.25 18.2813 5.45291 18.2303 5.5994 18.1934C5.61141 18.1904 5.62304 18.1875 5.63424 18.1847L7.95503 17.6045C7.97296 17.6 7.99142 17.5955 8.01032 17.5908C8.21863 17.5394 8.4823 17.4743 8.72406 17.3374L8.72407 17.3374C8.96583 17.2005 9.15728 17.0079 9.30853 16.8558C9.32226 16.8419 9.33566 16.8285 9.34874 16.8154L15.832 10.3321C15.8441 10.32 15.8562 10.308 15.8682 10.2959C16.1511 10.0131 16.4261 9.73822 16.6249 9.48143C16.848 9.19327 17.0627 8.82088 17.0838 8.33708C17.0863 8.27906 17.0863 8.22094 17.0838 8.16291C17.0627 7.67912 16.848 7.30673 16.6249 7.01857C16.4261 6.76178 16.1511 6.48686 15.8682 6.20409C15.8562 6.19204 15.8441 6.17997 15.832 6.16789C15.82 6.15582 15.8079 6.14375 15.7958 6.1317C15.5131 5.84882 15.2381 5.57379 14.9813 5.37498C14.6932 5.15189 14.3208 4.9372 13.837 4.91611C13.779 4.91358 13.7209 4.91358 13.6628 4.91611C13.179 4.9372 12.8066 5.15189 12.5185 5.37498C12.2617 5.57379 11.9868 5.84881 11.704 6.13169C11.692 6.14374 11.6799 6.15581 11.6678 6.16789L5.18453 12.6512C5.17145 12.6643 5.15797 12.6777 5.14416 12.6914C4.99198 12.8426 4.79937 13.0341 4.66248 13.2758Z" stroke="#6366F1" stroke-width="2"/>
<path d="M11.4583 6.87502L14.2083 5.04169L16.9583 7.79169L15.1249 10.5417L11.4583 6.87502Z" fill="#6366F1"/>
</svg>
