<svg width="22" height="22" viewBox="0 0 22 22" fill="none" xmlns="http://www.w3.org/2000/svg">
<path fill-rule="evenodd" clip-rule="evenodd" d="M13.059 2.10564C12.4139 1.87508 11.7202 1.75 10.9999 1.75C7.88105 1.75 5.26096 4.0951 4.91654 7.19487L4.68572 9.27223C4.58319 10.195 4.28285 11.0848 3.80517 11.8809L3.27531 12.764L3.25636 12.7956L3.25635 12.7956C3.06609 13.1126 2.89355 13.4002 2.77262 13.644C2.65066 13.8898 2.51219 14.2207 2.5162 14.6042C2.52338 15.2918 2.88331 15.9275 3.46923 16.2875C3.79606 16.4882 4.151 16.5397 4.42459 16.5616C4.69586 16.5834 5.03122 16.5834 5.401 16.5833L5.43778 16.5833H16.562L16.5988 16.5833C16.9686 16.5834 17.3039 16.5834 17.5752 16.5616C17.8488 16.5397 18.2037 16.4882 18.5306 16.2875C19.1165 15.9275 19.4764 15.2918 19.4836 14.6042C19.4876 14.2207 19.3491 13.8898 19.2272 13.644C19.1062 13.4002 18.9337 13.1126 18.7434 12.7956L18.7245 12.764L18.1946 11.8809C17.8849 11.3647 17.6498 10.8092 17.4947 10.2308C17.1737 10.298 16.8409 10.3333 16.4999 10.3333C16.1353 10.3333 15.7801 10.293 15.4386 10.2164C15.6282 11.1655 15.9798 12.0768 16.4796 12.9099L17.0095 13.793C17.2248 14.1519 17.3546 14.3697 17.4355 14.5327C17.4412 14.5443 17.4464 14.555 17.4511 14.5649C17.4402 14.5659 17.4284 14.567 17.4155 14.568C17.2341 14.5826 16.9806 14.5833 16.562 14.5833H5.43778C5.01923 14.5833 4.7657 14.5826 4.5843 14.568C4.57142 14.567 4.55957 14.5659 4.54872 14.5649C4.55338 14.555 4.55856 14.5443 4.5643 14.5327C4.64517 14.3697 4.77495 14.1519 4.99029 13.793L5.52016 12.9099C6.14581 11.8671 6.5392 10.7017 6.67349 9.4931L6.9043 7.41573C7.13618 5.32883 8.90015 3.75 10.9999 3.75C11.3268 3.75 11.6455 3.78827 11.9516 3.86076C12.1913 3.19593 12.5726 2.59875 13.059 2.10564ZM15.641 3.8799C15.0613 4.18787 14.6666 4.79783 14.6666 5.5C14.6666 6.51252 15.4874 7.33333 16.4999 7.33333C16.7056 7.33333 16.9034 7.29946 17.0879 7.23699L17.0833 7.19487C16.9424 5.92749 16.4212 4.78626 15.641 3.8799Z" fill="#6366F1"/>
<path d="M8.3437 16.1926C8.50038 17.0697 8.84563 17.8448 9.32591 18.3976C9.80618 18.9504 10.3946 19.25 11 19.25C11.6054 19.25 12.1938 18.9504 12.6741 18.3976C13.1544 17.8448 13.4996 17.0697 13.6563 16.1926" stroke="#6366F1" stroke-width="2" stroke-linecap="round"/>
<path d="M16.5001 7.83335C17.7887 7.83335 18.8334 6.78868 18.8334 5.50002C18.8334 4.21136 17.7887 3.16669 16.5001 3.16669C15.2114 3.16669 14.1667 4.21136 14.1667 5.50002C14.1667 6.78868 15.2114 7.83335 16.5001 7.83335Z" fill="#FF0000" stroke="#FF0000"/>
</svg>
