<svg width="34" height="34" viewBox="0 0 34 34" fill="none" xmlns="http://www.w3.org/2000/svg">
<path d="M21.3025 5.15949C21.9555 4.72412 22.2821 4.50643 22.6378 4.54166C22.9936 4.57689 23.2711 4.85439 23.8261 5.40938L28.5907 10.174C29.1457 10.7289 29.4231 11.0064 29.4584 11.3622C29.4936 11.718 29.2759 12.0445 28.8405 12.6976L25.8391 17.1997C24.9641 18.5123 24.5265 19.1686 24.2266 19.8927C23.9267 20.6167 23.772 21.3902 23.4626 22.9371L23.0906 24.7971C22.9794 25.3531 22.9238 25.6312 22.8024 25.8037C22.5761 26.1253 22.1822 26.2844 21.7961 26.2102C21.5889 26.1705 21.3557 26.0091 20.8895 25.6863V25.6863C18.6981 24.1692 17.6024 23.4106 16.5742 22.5773C14.6826 21.044 12.9561 19.3175 11.4228 17.4258C10.5894 16.3977 9.83088 15.302 8.31376 13.1106V13.1106C7.99097 12.6443 7.82958 12.4112 7.7898 12.204C7.71565 11.8178 7.87474 11.424 8.19633 11.1977C8.36886 11.0762 8.6469 11.0206 9.20297 10.9094L11.063 10.5374C12.6099 10.228 13.3833 10.0733 14.1074 9.77343C14.8314 9.47352 15.4877 9.03599 16.8003 8.16093L21.3025 5.15949Z" stroke="#4F46E5" stroke-width="3"/>
<path d="M7.08337 26.9166L13.4584 20.5416" stroke="#4F46E5" stroke-width="3" stroke-linecap="round"/>
</svg>
