<svg width="34" height="34" viewBox="0 0 34 34" fill="none" xmlns="http://www.w3.org/2000/svg">
<path d="M28.3333 17V25.75C28.3333 27.6356 28.3333 28.5784 27.7475 29.1642C27.1617 29.75 26.2189 29.75 24.3333 29.75H9.20829C8.70513 29.75 8.45356 29.75 8.24263 29.7199C6.92248 29.5314 5.88521 28.4941 5.69674 27.174C5.66663 26.9631 5.66663 26.7115 5.66663 26.2083V26.2083C5.66663 25.7052 5.66663 25.4536 5.69674 25.2427C5.88521 23.9225 6.92248 22.8853 8.24263 22.6968C8.45356 22.6667 8.70514 22.6667 9.20829 22.6667H24.3333C26.2189 22.6667 27.1617 22.6667 27.7475 22.0809C28.3333 21.4951 28.3333 20.5523 28.3333 18.6667V8.25C28.3333 6.36438 28.3333 5.42157 27.7475 4.83579C27.1617 4.25 26.2189 4.25 24.3333 4.25H9.66662C7.78101 4.25 6.8382 4.25 6.25241 4.83579C5.66663 5.42157 5.66663 6.36438 5.66663 8.25V26.2083" stroke="#4F46E5" stroke-width="3"/>
<path d="M20 10L14 16" stroke="#4F46E5" stroke-width="3" stroke-linecap="round"/>
<path d="M20 16L14 10" stroke="#4F46E5" stroke-width="3" stroke-linecap="round"/>
</svg>
