<svg width="44" height="44" viewBox="0 0 44 44" fill="none" xmlns="http://www.w3.org/2000/svg">
<path d="M24.5948 31.9015C26.3468 31.4321 27.9445 30.5097 29.2271 29.2271C30.5097 27.9445 31.4321 26.3468 31.9015 24.5948C32.371 22.8427 32.371 20.9979 31.9015 19.2458C31.4321 17.4938 30.5097 15.8961 29.2271 14.6135C27.9445 13.3309 26.3468 12.4085 24.5948 11.9391C22.8427 11.4696 20.9979 11.4696 19.2458 11.9391C17.4938 12.4085 15.8961 13.3309 14.6135 14.6135C13.3309 15.8961 12.4085 17.4938 11.9391 19.2458" stroke="#4F46E5" stroke-width="3"/>
<path d="M12.7868 31.0538L11.296 31.2194L11.4285 32.4121L12.6212 32.5446L12.7868 31.0538ZM22.0676 23.8943C22.6534 23.3085 22.6534 22.3588 22.0676 21.773C21.4818 21.1872 20.5321 21.1872 19.9463 21.773L22.0676 23.8943ZM10.3827 22.9993L11.296 31.2194L14.2777 30.8881L13.3643 22.668L10.3827 22.9993ZM12.6212 32.5446L20.8413 33.4579L21.1726 30.4763L12.9525 29.5629L12.6212 32.5446ZM13.8475 32.1144L22.0676 23.8943L19.9463 21.773L11.7262 29.9931L13.8475 32.1144Z" fill="#4F46E5"/>
</svg>
