<svg width="22" height="22" viewBox="0 0 22 22" fill="none" xmlns="http://www.w3.org/2000/svg">
<path d="M1.83325 11L1.05238 10.3753L0.552627 11L1.05238 11.6247L1.83325 11ZM10.0833 12C10.6355 12 11.0833 11.5523 11.0833 11C11.0833 10.4477 10.6355 10 10.0833 10V12ZM4.71905 5.79199L1.05238 10.3753L2.61412 11.6247L6.28079 7.04138L4.71905 5.79199ZM1.05238 11.6247L4.71905 16.208L6.28079 14.9587L2.61412 10.3753L1.05238 11.6247ZM1.83325 12H10.0833V10H1.83325V12Z" fill="#6366F1"/>
<path d="M9.16675 7.45425V7.05515C9.16675 5.43681 9.16675 4.62764 9.64071 4.06815C10.1147 3.50866 10.9128 3.37563 12.5092 3.10958L13.1804 2.99771C16.4234 2.4572 18.045 2.18694 19.1059 3.08563C20.1667 3.98433 20.1667 5.62825 20.1667 8.91608V13.0839C20.1667 16.3717 20.1667 18.0156 19.1059 18.9143C18.045 19.813 16.4234 19.5428 13.1804 19.0022L12.5092 18.8904C10.9128 18.6243 10.1147 18.4913 9.64071 17.9318C9.16675 17.3723 9.16675 16.5631 9.16675 14.9448V14.7271" stroke="#6366F1" stroke-width="2"/>
</svg>
