<svg width="44" height="44" viewBox="0 0 44 44" fill="none" xmlns="http://www.w3.org/2000/svg">
<path d="M19.2458 11.939C17.4937 12.4085 15.8961 13.3309 14.6135 14.6135C13.3309 15.8961 12.4085 17.4937 11.9391 19.2458C11.4696 20.9979 11.4696 22.8427 11.9391 24.5947C12.4085 26.3468 13.3309 27.9444 14.6135 29.227C15.8961 30.5096 17.4938 31.432 19.2458 31.9015C20.9979 32.371 22.8427 32.371 24.5948 31.9015C26.3468 31.432 27.9445 30.5096 29.2271 29.227C30.5097 27.9444 31.4321 26.3468 31.9015 24.5947" stroke="#4F46E5" stroke-width="3"/>
<path d="M31.0538 12.7868L32.5446 12.6211L32.4121 11.4285L31.2194 11.296L31.0538 12.7868ZM21.773 19.9462C21.1872 20.532 21.1872 21.4818 21.773 22.0676C22.3588 22.6533 23.3085 22.6533 23.8943 22.0676L21.773 19.9462ZM33.4579 20.8413L32.5446 12.6211L29.5629 12.9524L30.4763 21.1725L33.4579 20.8413ZM31.2194 11.296L22.9993 10.3826L22.668 13.3643L30.8881 14.2776L31.2194 11.296ZM29.9931 11.7261L21.773 19.9462L23.8943 22.0676L32.1144 13.8474L29.9931 11.7261Z" fill="#4F46E5"/>
</svg>
