<svg width="34" height="34" viewBox="0 0 34 34" fill="none" xmlns="http://www.w3.org/2000/svg">
<path d="M21.1667 11.3333C21.1667 13.6345 19.3012 15.5 17 15.5C14.6989 15.5 12.8334 13.6345 12.8334 11.3333C12.8334 9.03214 14.6989 7.16666 17 7.16666C19.3012 7.16666 21.1667 9.03214 21.1667 11.3333Z" stroke="#4F46E5" stroke-width="3" stroke-linecap="round"/>
<path d="M21.7018 11.375C22.0665 10.7434 22.6671 10.2825 23.3716 10.0937C24.0761 9.90494 24.8267 10.0038 25.4584 10.3684C26.09 10.7331 26.5509 11.3338 26.7397 12.0382C26.9284 12.7427 26.8296 13.4934 26.4649 14.125C26.1003 14.7566 25.4996 15.2175 24.7951 15.4063C24.0906 15.5951 23.34 15.4962 22.7084 15.1316C22.0767 14.7669 21.6158 14.1662 21.4271 13.4618C21.2383 12.7573 21.3371 12.0066 21.7018 11.375L21.7018 11.375Z" stroke="#4F46E5" stroke-width="3"/>
<path d="M7.53506 11.375C7.89973 10.7434 8.50038 10.2825 9.20487 10.0937C9.90937 9.90494 10.66 10.0038 11.2916 10.3684C11.9233 10.7331 12.3842 11.3338 12.5729 12.0382C12.7617 12.7427 12.6629 13.4934 12.2982 14.125C11.9335 14.7566 11.3329 15.2175 10.6284 15.4063C9.92389 15.5951 9.17326 15.4962 8.54163 15.1316C7.90999 14.7669 7.4491 14.1662 7.26033 13.4618C7.07156 12.7573 7.17038 12.0066 7.53506 11.375L7.53506 11.375Z" stroke="#4F46E5" stroke-width="3"/>
<path d="M23.9156 25.5L22.4451 25.7962L22.6876 27H23.9156V25.5ZM29.4999 24.3966L28.0621 24.8243L28.0621 24.8243L29.4999 24.3966ZM20.9395 20.8399L20.0322 19.6454L18.2973 20.9631L20.1473 22.1137L20.9395 20.8399ZM28.6172 24H23.9156V27H28.6172V24ZM28.0621 24.8243C27.9991 24.6124 28.0552 24.3761 28.188 24.214C28.3103 24.0646 28.4753 24 28.6172 24V27C30.0674 27 31.4378 25.6503 30.9376 23.9688L28.0621 24.8243ZM24.0833 21.3333C25.3904 21.3333 26.2325 21.846 26.8304 22.5048C27.4676 23.2069 27.8494 24.1095 28.0621 24.8243L30.9376 23.9688C30.6597 23.035 30.1113 21.6559 29.0519 20.4886C27.9531 19.2779 26.3322 18.3333 24.0833 18.3333V21.3333ZM21.8467 22.0344C22.3771 21.6316 23.0846 21.3333 24.0833 21.3333V18.3333C22.4188 18.3333 21.0761 18.8525 20.0322 19.6454L21.8467 22.0344ZM20.1473 22.1137C21.5907 23.0114 22.2001 24.5798 22.4451 25.7962L25.3861 25.2039C25.0755 23.6617 24.209 21.107 21.7316 19.5662L20.1473 22.1137Z" fill="#4F46E5"/>
<path d="M13.0605 20.8399L13.8527 22.1137L15.7026 20.9631L13.9677 19.6454L13.0605 20.8399ZM4.50007 24.3966L3.06236 23.9688H3.06236L4.50007 24.3966ZM10.0843 25.5V27H11.3123L11.5548 25.7962L10.0843 25.5ZM9.91665 21.3333C10.9154 21.3333 11.6228 21.6316 12.1532 22.0344L13.9677 19.6454C12.9238 18.8525 11.5811 18.3333 9.91665 18.3333V21.3333ZM5.93778 24.8243C6.15048 24.1095 6.5323 23.207 7.16956 22.5048C7.76742 21.846 8.60958 21.3333 9.91665 21.3333V18.3333C7.66773 18.3333 6.04686 19.2779 4.94806 20.4886C3.88866 21.6559 3.3402 23.035 3.06236 23.9688L5.93778 24.8243ZM5.38275 24C5.52464 24 5.68959 24.0646 5.81196 24.214C5.94471 24.3761 6.00083 24.6124 5.93778 24.8243L3.06236 23.9688C2.56207 25.6503 3.93246 27 5.38275 27V24ZM10.0843 24H5.38275V27H10.0843V24ZM11.5548 25.7962C11.7998 24.5798 12.4092 23.0114 13.8527 22.1137L12.2683 19.5662C9.79088 21.1069 8.92442 23.6617 8.61382 25.2039L11.5548 25.7962Z" fill="#4F46E5"/>
<path d="M17 19.8333C22.4165 19.8333 23.6911 23.9752 23.991 25.9246C24.075 26.4704 23.6356 26.9167 23.0833 26.9167H10.9166C10.3643 26.9167 9.92494 26.4704 10.0089 25.9246C10.3089 23.9752 11.5835 19.8333 17 19.8333Z" stroke="#4F46E5" stroke-width="3" stroke-linecap="round"/>
</svg>
