<svg width="35" height="35" viewBox="0 0 35 35" fill="none" xmlns="http://www.w3.org/2000/svg">
<path d="M5.83337 5.83334H8.64682C9.39677 5.83334 9.77175 5.83334 10.043 6.04514C10.3143 6.25693 10.4052 6.62071 10.5871 7.34827L10.9593 8.8371C11.2741 10.0962 11.4315 10.7258 11.8642 11.1293C11.9497 11.2091 12.042 11.2812 12.1401 11.3448C12.6366 11.6667 13.2855 11.6667 14.5834 11.6667V11.6667" stroke="#4F46E5" stroke-width="3" stroke-linecap="round"/>
<path d="M26.25 24.7917H11.0117C10.224 24.7917 9.83011 24.7917 9.57583 24.6191C9.38079 24.4867 9.23879 24.2897 9.17488 24.0628C9.09156 23.767 9.21612 23.3933 9.46522 22.646V22.646C9.74079 21.8193 9.87857 21.4059 10.1401 21.105C10.3429 20.8714 10.5972 20.6882 10.8829 20.5696C11.2511 20.4167 11.6868 20.4167 12.5583 20.4167H20.4167" stroke="#4F46E5" stroke-width="3" stroke-linecap="round" stroke-linejoin="round"/>
<path d="M22.3196 20.4167H15.0552C13.4369 20.4167 12.6277 20.4167 12.0682 19.9427C11.5087 19.4687 11.3757 18.6706 11.1096 17.0743L10.7906 15.1599C10.5203 13.5383 10.3852 12.7275 10.8345 12.1971C11.2839 11.6667 12.1058 11.6667 13.7498 11.6667H25.9306C27.381 11.6667 28.1062 11.6667 28.3993 12.1409C28.6924 12.6152 28.3681 13.2638 27.7195 14.5611L25.8973 18.2055C25.3594 19.2813 25.0904 19.8193 24.6071 20.118C24.1238 20.4167 23.5224 20.4167 22.3196 20.4167Z" stroke="#4F46E5" stroke-width="3" stroke-linecap="round"/>
<circle cx="24.7917" cy="29.1667" r="1.45833" fill="#4F46E5"/>
<circle cx="13.125" cy="29.1667" r="1.45833" fill="#4F46E5"/>
</svg>
