<svg width="34" height="34" viewBox="0 0 34 34" fill="none" xmlns="http://www.w3.org/2000/svg">
<path d="M5.66663 17C5.66663 14.8315 5.66663 13.7472 5.85256 12.8467C6.57904 9.32838 9.32832 6.5791 12.8467 5.85262C13.7471 5.66669 14.8314 5.66669 17 5.66669V5.66669C19.1685 5.66669 20.2528 5.66669 21.1533 5.85262C24.6716 6.5791 27.4209 9.32838 28.1474 12.8467C28.3333 13.7472 28.3333 14.8315 28.3333 17V24.3334C28.3333 26.219 28.3333 27.1618 27.7475 27.7476C27.1617 28.3334 26.2189 28.3334 24.3333 28.3334H17C14.8314 28.3334 13.7471 28.3334 12.8467 28.1474C9.32832 27.4209 6.57904 24.6717 5.85256 21.1533C5.66663 20.2528 5.66663 19.1686 5.66663 17V17Z" stroke="#4F46E5" stroke-width="3"/>
<path d="M12.75 15.5833L21.25 15.5833" stroke="#4F46E5" stroke-width="3" stroke-linecap="round" stroke-linejoin="round"/>
<path d="M17 21.25H21.25" stroke="#4F46E5" stroke-width="3" stroke-linecap="round" stroke-linejoin="round"/>
</svg>
